<svg width="84" height="84" viewBox="0 0 84 84" fill="none" xmlns="http://www.w3.org/2000/svg">
<rect x="0.75" y="0.75" width="82.5" height="82.5" rx="9.25" fill="white" stroke="black" stroke-width="1.5"/>
<path d="M25.9388 19.728V58.064C25.9388 58.7467 26.0241 59.2373 26.1948 59.536C26.4081 59.792 26.8988 59.92 27.6667 59.92H34.5788V66H25.1708C22.0561 66 19.6881 65.4667 18.0668 64.4C16.4881 63.3333 15.6988 61.4773 15.6988 58.832V23.376C15.6988 21.8827 15.9121 20.9013 16.3388 20.432C16.8081 19.9627 17.7681 19.728 19.2188 19.728H25.9388ZM36.4988 34H43.1548C44.4348 34 45.3521 34.3627 45.9068 35.088C46.4614 35.7707 46.7388 36.9013 46.7388 38.48V58.064C46.7388 58.7467 46.8241 59.2373 46.9948 59.536C47.2081 59.792 47.6988 59.92 48.4668 59.92H55.3788V66H38.8028C38.1201 66 37.5654 65.7653 37.1388 65.296C36.7121 64.8267 36.4988 64.208 36.4988 63.44V34ZM57.9388 19.728H64.6588C66.1094 19.728 67.0694 19.9627 67.5388 20.432C68.0081 20.9013 68.2428 21.8827 68.2428 23.376V63.44C68.2428 64.208 68.0081 64.8267 67.5388 65.296C67.1121 65.7653 66.5574 66 65.8748 66H57.9388V19.728Z" fill="black"/>
</svg>
